<mxfile host="app.diagrams.net" modified="2023-10-16T01:27:37.754Z" agent="Mozilla/5.0 (Windows NT 10.0; Win64; x64; rv:109.0) Gecko/20100101 Firefox/118.0" etag="MfzZzNpJLfakMNGTxRSk" version="22.0.4" type="github">
  <diagram id="C5RBs43oDa-KdzZeNtuy" name="Page-1">
    <mxGraphModel dx="880" dy="397" grid="1" gridSize="10" guides="1" tooltips="1" connect="1" arrows="1" fold="1" page="1" pageScale="1" pageWidth="827" pageHeight="1169" math="0" shadow="0">
      <root>
        <mxCell id="WIyWlLk6GJQsqaUBKTNV-0" />
        <mxCell id="WIyWlLk6GJQsqaUBKTNV-1" parent="WIyWlLk6GJQsqaUBKTNV-0" />
        <mxCell id="vU6NObTXtmgQixsPXieI-25" style="edgeStyle=orthogonalEdgeStyle;rounded=0;orthogonalLoop=1;jettySize=auto;html=1;exitX=0.5;exitY=1;exitDx=0;exitDy=0;entryX=0.5;entryY=0;entryDx=0;entryDy=0;fontStyle=1;strokeWidth=2;" edge="1" parent="WIyWlLk6GJQsqaUBKTNV-1" source="vU6NObTXtmgQixsPXieI-2" target="vU6NObTXtmgQixsPXieI-5">
          <mxGeometry relative="1" as="geometry" />
        </mxCell>
        <mxCell id="vU6NObTXtmgQixsPXieI-2" value="mulai" style="rounded=1;whiteSpace=wrap;html=1;fontStyle=1;strokeWidth=2;" vertex="1" parent="WIyWlLk6GJQsqaUBKTNV-1">
          <mxGeometry x="220" y="80" width="120" height="60" as="geometry" />
        </mxCell>
        <mxCell id="vU6NObTXtmgQixsPXieI-5" value="ineger bilangan" style="shape=internalStorage;whiteSpace=wrap;html=1;backgroundOutline=1;dx=20;dy=10;fontStyle=1;strokeWidth=2;" vertex="1" parent="WIyWlLk6GJQsqaUBKTNV-1">
          <mxGeometry x="212.5" y="190" width="135" height="60" as="geometry" />
        </mxCell>
        <mxCell id="vU6NObTXtmgQixsPXieI-10" value="" style="endArrow=classic;html=1;rounded=0;exitX=0.5;exitY=1;exitDx=0;exitDy=0;fontStyle=1;strokeWidth=2;" edge="1" parent="WIyWlLk6GJQsqaUBKTNV-1" source="vU6NObTXtmgQixsPXieI-5">
          <mxGeometry width="50" height="50" relative="1" as="geometry">
            <mxPoint x="260" y="330" as="sourcePoint" />
            <mxPoint x="280" y="310" as="targetPoint" />
          </mxGeometry>
        </mxCell>
        <mxCell id="vU6NObTXtmgQixsPXieI-11" value="&lt;div&gt;masukan&lt;/div&gt;&lt;div&gt;bilangan&lt;br&gt;&lt;/div&gt;" style="shape=parallelogram;perimeter=parallelogramPerimeter;whiteSpace=wrap;html=1;fixedSize=1;fontStyle=1;strokeWidth=2;" vertex="1" parent="WIyWlLk6GJQsqaUBKTNV-1">
          <mxGeometry x="218.75" y="310" width="120" height="60" as="geometry" />
        </mxCell>
        <mxCell id="vU6NObTXtmgQixsPXieI-15" value="" style="endArrow=classic;html=1;rounded=0;exitX=0.5;exitY=1;exitDx=0;exitDy=0;fontStyle=1;strokeWidth=2;" edge="1" parent="WIyWlLk6GJQsqaUBKTNV-1" source="vU6NObTXtmgQixsPXieI-11">
          <mxGeometry width="50" height="50" relative="1" as="geometry">
            <mxPoint x="260" y="440" as="sourcePoint" />
            <mxPoint x="275" y="420" as="targetPoint" />
          </mxGeometry>
        </mxCell>
        <mxCell id="vU6NObTXtmgQixsPXieI-40" style="edgeStyle=orthogonalEdgeStyle;rounded=0;orthogonalLoop=1;jettySize=auto;html=1;exitX=0.5;exitY=1;exitDx=0;exitDy=0;fontStyle=1;strokeWidth=2;" edge="1" parent="WIyWlLk6GJQsqaUBKTNV-1" source="vU6NObTXtmgQixsPXieI-36">
          <mxGeometry relative="1" as="geometry">
            <mxPoint x="273" y="540" as="targetPoint" />
          </mxGeometry>
        </mxCell>
        <mxCell id="vU6NObTXtmgQixsPXieI-36" value="&lt;div&gt;x=bilangan mod%1&lt;/div&gt;&lt;div&gt;y=bilangan mod% bilangan&lt;br&gt;&lt;/div&gt;" style="rounded=0;whiteSpace=wrap;html=1;fontStyle=1;strokeWidth=2;" vertex="1" parent="WIyWlLk6GJQsqaUBKTNV-1">
          <mxGeometry x="170" y="420" width="205" height="60" as="geometry" />
        </mxCell>
        <mxCell id="vU6NObTXtmgQixsPXieI-42" style="edgeStyle=orthogonalEdgeStyle;rounded=0;orthogonalLoop=1;jettySize=auto;html=1;exitX=1;exitY=0.5;exitDx=0;exitDy=0;fontStyle=1;strokeWidth=2;" edge="1" parent="WIyWlLk6GJQsqaUBKTNV-1" source="vU6NObTXtmgQixsPXieI-41">
          <mxGeometry relative="1" as="geometry">
            <mxPoint x="420" y="640" as="targetPoint" />
          </mxGeometry>
        </mxCell>
        <mxCell id="vU6NObTXtmgQixsPXieI-43" style="edgeStyle=orthogonalEdgeStyle;rounded=0;orthogonalLoop=1;jettySize=auto;html=1;exitX=0;exitY=0.5;exitDx=0;exitDy=0;fontStyle=1;strokeWidth=2;" edge="1" parent="WIyWlLk6GJQsqaUBKTNV-1" source="vU6NObTXtmgQixsPXieI-41">
          <mxGeometry relative="1" as="geometry">
            <mxPoint x="110" y="640" as="targetPoint" />
          </mxGeometry>
        </mxCell>
        <mxCell id="vU6NObTXtmgQixsPXieI-41" value="x=0 AND y=0" style="rhombus;whiteSpace=wrap;html=1;fontStyle=1;strokeWidth=2;" vertex="1" parent="WIyWlLk6GJQsqaUBKTNV-1">
          <mxGeometry x="196.25" y="540" width="152.5" height="80" as="geometry" />
        </mxCell>
        <mxCell id="vU6NObTXtmgQixsPXieI-46" style="edgeStyle=orthogonalEdgeStyle;rounded=0;orthogonalLoop=1;jettySize=auto;html=1;exitX=0.5;exitY=1;exitDx=0;exitDy=0;fontStyle=1;strokeWidth=2;" edge="1" parent="WIyWlLk6GJQsqaUBKTNV-1" source="vU6NObTXtmgQixsPXieI-44">
          <mxGeometry relative="1" as="geometry">
            <mxPoint x="420" y="810" as="targetPoint" />
            <Array as="points">
              <mxPoint x="110" y="780" />
              <mxPoint x="111" y="780" />
              <mxPoint x="111" y="810" />
            </Array>
          </mxGeometry>
        </mxCell>
        <mxCell id="vU6NObTXtmgQixsPXieI-44" value="bilangan prima" style="shape=parallelogram;perimeter=parallelogramPerimeter;whiteSpace=wrap;html=1;fixedSize=1;fontStyle=1;strokeWidth=2;" vertex="1" parent="WIyWlLk6GJQsqaUBKTNV-1">
          <mxGeometry x="50" y="640" width="120" height="60" as="geometry" />
        </mxCell>
        <mxCell id="vU6NObTXtmgQixsPXieI-47" style="edgeStyle=orthogonalEdgeStyle;rounded=0;orthogonalLoop=1;jettySize=auto;html=1;exitX=0.5;exitY=1;exitDx=0;exitDy=0;fontStyle=1;strokeWidth=2;" edge="1" parent="WIyWlLk6GJQsqaUBKTNV-1" source="vU6NObTXtmgQixsPXieI-45">
          <mxGeometry relative="1" as="geometry">
            <mxPoint x="420" y="810" as="targetPoint" />
          </mxGeometry>
        </mxCell>
        <mxCell id="vU6NObTXtmgQixsPXieI-45" value="&lt;div&gt;bukan&lt;/div&gt;&lt;div&gt;bilangan&lt;/div&gt;&lt;div&gt;prima&lt;br&gt;&lt;/div&gt;" style="shape=parallelogram;perimeter=parallelogramPerimeter;whiteSpace=wrap;html=1;fixedSize=1;fontStyle=1;strokeWidth=2;" vertex="1" parent="WIyWlLk6GJQsqaUBKTNV-1">
          <mxGeometry x="360" y="640" width="120" height="60" as="geometry" />
        </mxCell>
        <mxCell id="vU6NObTXtmgQixsPXieI-48" value="" style="endArrow=classic;html=1;rounded=0;fontStyle=1;strokeWidth=2;" edge="1" parent="WIyWlLk6GJQsqaUBKTNV-1">
          <mxGeometry width="50" height="50" relative="1" as="geometry">
            <mxPoint x="270" y="810" as="sourcePoint" />
            <mxPoint x="270" y="900" as="targetPoint" />
          </mxGeometry>
        </mxCell>
        <mxCell id="vU6NObTXtmgQixsPXieI-49" value="selesai" style="ellipse;whiteSpace=wrap;html=1;fontStyle=1;strokeWidth=2;" vertex="1" parent="WIyWlLk6GJQsqaUBKTNV-1">
          <mxGeometry x="212.5" y="900" width="120" height="80" as="geometry" />
        </mxCell>
      </root>
    </mxGraphModel>
  </diagram>
</mxfile>
